<?xml version="1.0" encoding="utf-8"?>
<!-- Created with "sPlan" (http://www.abacom-online.de) -->
<svg version="1.1" baseProfile="full"
xmlns="http://www.w3.org/2000/svg"
width="1632" height="1042">
<title>sPlan</title>
<defs>
<style type="text/css">
<![CDATA[
polyline {stroke-linecap:round; stroke-linejoin:round}
polygon {stroke-linecap:round; stroke-linejoin:round}
path {stroke-linecap:round; stroke-linejoin:round}
circle {stroke-linecap:round; stroke-linejoin:round}
]]>
</style>
</defs>
<polygon points="481 271 531 281 581 321 671 411 821 611 891 511 1001 431 1101 461 1171 511 1291 641 1571 961 1531 991 1461 1001 131 1001 91 1001 71 991 51 981 41 961 71 871 111 781 221 601 331 411 411 311 441 281" fill="rgb(203,211,222)" stroke="none" stroke-width="2" />
<path fill="rgb(203,211,222)" stroke="none" stroke-width="2" d=" M 1588.93 282.46 Q 1591.00 261.00 1588.93 239.54 Q 1586.87 218.08 1580.75 197.44 Q 1574.63 176.81 1564.70 157.79 Q 1554.77 138.77 1541.40 122.11 Q 1528.03 105.44 1511.74 91.76 Q 1495.45 78.08 1476.86 67.91 Q 1458.28 57.75 1438.11 51.49 Q 1417.94 45.23 1396.97 43.11 Q 1376.00 41.00 1355.03 43.11 Q 1334.06 45.23 1313.89 51.49 Q 1293.72 57.75 1275.14 67.91 Q 1256.55 78.08 1240.26 91.76 Q 1223.97 105.44 1210.60 122.11 Q 1197.23 138.77 1187.30 157.79 Q 1177.37 176.81 1171.25 197.44 Q 1165.13 218.08 1163.07 239.54 Q 1161.00 261.00 1163.07 282.46 Q 1165.13 303.92 1171.25 324.56 Q 1177.37 345.19 1187.30 364.21 Q 1197.23 383.23 1210.60 399.89 Q 1223.97 416.56 1240.26 430.24 Q 1256.55 443.92 1275.14 454.09 Q 1293.72 464.25 1313.89 470.51 Q 1334.06 476.77 1355.03 478.89 Q 1376.00 481.00 1396.97 478.89 Q 1417.94 476.77 1438.11 470.51 Q 1458.28 464.25 1476.86 454.09 Q 1495.45 443.92 1511.74 430.24 Q 1528.03 416.56 1541.40 399.89 Q 1554.77 383.23 1564.70 364.21 Q 1574.63 345.19 1580.75 324.56 Q 1586.87 303.92 1588.93 282.46 Z" />
</svg>
